<svg xmlns="http://www.w3.org/2000/svg" xmlns:xlink="http://www.w3.org/1999/xlink" viewBox="0 0 1506.53 552.71"><defs><style>.a{fill:url(#a);}.b{fill:url(#b);}.c{fill:url(#c);}.d{fill:url(#d);}.e{fill:#fff;}.f{fill:#424242;}</style><linearGradient id="a" x1="-102.41" y1="207.25" x2="440.8" y2="693.43" gradientUnits="userSpaceOnUse"><stop offset="0" stop-color="#1576ff"/><stop offset="1" stop-color="#601cff"/></linearGradient><linearGradient id="b" x1="279.64" y1="261.56" x2="822.84" y2="747.74" xlink:href="#a"/><linearGradient id="c" x1="104.85" y1="-24.32" x2="648.06" y2="461.86" xlink:href="#a"/><linearGradient id="d" x1="1115.77" y1="267.95" x2="1451.04" y2="568.02" gradientUnits="userSpaceOnUse"><stop offset="0" stop-color="#0986ff"/><stop offset="1" stop-color="#601cff"/></linearGradient></defs><polygon class="a" points="212.44 235.25 212.44 306.06 83.17 306.06 83.17 552.71 0 552.71 0 341.23 82.69 235.25 212.44 235.25"/><path class="b" d="M634.77,259.92l-47.52,70.34h-274a31.6,31.6,0,0,0-31.61,31.6V413L198,508V362.81A102.9,102.9,0,0,1,300.91,259.92Z" transform="translate(-198.02 -259.92)"/><polygon class="c" points="609.03 552.71 517.78 552.71 353.11 317.47 353.11 552.71 283.25 552.71 283.25 318.89 508.51 0 598.34 0 412.28 264.71 609.03 552.71"/><rect class="d" x="1060.28" y="307.49" width="446.26" height="220.99" rx="36.36"/><path class="e" d="M1359.72,628.07a135.93,135.93,0,0,1,25-2.1c14,0,23,2.55,29.25,8.25,5.1,4.5,8,11.4,8,19.2,0,13.34-8.4,22.19-19,25.79v.45c7.8,2.7,12.45,9.9,14.85,20.4,3.3,14.1,5.7,23.85,7.8,27.75h-13.5c-1.65-2.85-3.9-11.55-6.75-24.15-3-13.95-8.4-19.2-20.25-19.65h-12.3v43.8h-13Zm13,46h13.35c14,0,22.8-7.65,22.8-19.19,0-13-9.45-18.75-23.25-18.9a53.69,53.69,0,0,0-12.9,1.2Z" transform="translate(-198.02 -259.92)"/><path class="e" d="M1453.47,626.72v59.84c0,22.65,10,32.25,23.55,32.25,15,0,24.6-9.9,24.6-32.25V626.72h13.2v58.94c0,31.05-16.35,43.8-38.25,43.8-20.7,0-36.3-11.85-36.3-43.2V626.72Z" transform="translate(-198.02 -259.92)"/><path class="e" d="M1537.47,628.07a126.45,126.45,0,0,1,23.85-2.1c13,0,21.45,2.25,27.75,7.35,5.25,3.9,8.4,9.9,8.4,17.85,0,9.75-6.45,18.29-17.1,22.19v.31c9.6,2.39,20.84,10.34,20.84,25.34a27.25,27.25,0,0,1-8.54,20.25c-7.05,6.45-18.45,9.45-35,9.45a152.56,152.56,0,0,1-20.25-1.2Zm13,41.39h11.85c13.8,0,21.9-7.19,21.9-16.94,0-11.85-9-16.5-22.2-16.5a56,56,0,0,0-11.55.9Zm0,48.45a69.73,69.73,0,0,0,11,.6c13.5,0,26-5,26-19.65,0-13.8-11.85-19.5-26.1-19.5h-10.8Z" transform="translate(-198.02 -259.92)"/><path class="f" d="M829.3,535,786.55,366.5h23l20,85.25c5,21,9.5,42,12.5,58.25h.5c2.75-16.75,8-36.75,13.75-58.5l22.5-85h22.75l20.5,85.5c4.75,20,9.25,40,11.75,57.75h.5c3.5-18.5,8.25-37.25,13.5-58.25l22.25-85H992.3L944.55,535H921.8l-21.25-87.75c-5.25-21.5-8.75-38-11-55h-.5a526.41,526.41,0,0,1-13,55l-24,87.75Z" transform="translate(-198.02 -259.92)"/><path class="f" d="M1026.3,482l-17.5,53H986.3l57.25-168.5h26.25L1127.3,535h-23.25l-18-53Zm55.25-17-16.5-48.5c-3.75-11-6.25-21-8.75-30.75h-.5c-2.5,10-5.25,20.25-8.5,30.5L1030.8,465Z" transform="translate(-198.02 -259.92)"/><path class="f" d="M1152.05,366.5h21.75V516.75h72V535h-93.75Z" transform="translate(-198.02 -259.92)"/><path class="f" d="M1270.05,366.5h21.75V516.75h72V535h-93.75Z" transform="translate(-198.02 -259.92)"/><path class="f" d="M1475.29,456h-65.5v60.75h73V535H1388V366.5h91v18.25h-69.25V438h65.5Z" transform="translate(-198.02 -259.92)"/><path class="f" d="M1547,385h-51.25V366.5h124.75V385H1569V535h-22Z" transform="translate(-198.02 -259.92)"/><path class="f" d="M803.19,577.8V603h2.52l21.84-25.2h12.84l-25.32,26.28c9.36,1,15,7.2,19.56,17.64,1.56,3.84,3.6,9.48,6.24,14.16h-11a77.21,77.21,0,0,1-5.4-11.88c-4-9.36-9.36-13.68-19.2-13.68h-2v25.56H792.75V577.8Z" transform="translate(-198.02 -259.92)"/><path class="f" d="M902.07,606.36c0,21.48-14.88,30.84-28.92,30.84-15.72,0-27.84-11.52-27.84-29.88,0-19.44,12.72-30.83,28.8-30.83C890.79,576.49,902.07,588.6,902.07,606.36ZM856,607c0,12.72,7.32,22.32,17.64,22.32,10.08,0,17.64-9.48,17.64-22.56,0-9.84-4.92-22.31-17.4-22.31S856,595.92,856,607Z" transform="translate(-198.02 -259.92)"/><path class="f" d="M925.47,577.8v49.8h20.28V577.8h10.32v49.8h20.28V577.8h10.44v58.08H915.15V577.8Z" transform="translate(-198.02 -259.92)"/><path class="f" d="M1009.83,608.76c.24,14.28,9.36,20.16,19.92,20.16,7.56,0,12.12-1.32,16.08-3l1.8,7.56c-3.72,1.68-10.08,3.6-19.32,3.6-17.88,0-28.56-11.76-28.56-29.28s10.32-31.31,27.24-31.31c19,0,24,16.67,24,27.35a39.83,39.83,0,0,1-.36,4.92Zm31-7.56c.12-6.72-2.76-17.16-14.64-17.16-10.68,0-15.36,9.84-16.2,17.16Z" transform="translate(-198.02 -259.92)"/><path class="f" d="M1108.23,577.8v58.08h-10.44v-49.8h-19.92V601.2c0,16.32-1.56,27.24-9.12,32.16-2.88,2.28-6.12,3.6-11.52,3.6l-1.08-8.28a13.08,13.08,0,0,0,5.76-2.4c5.4-4,6-12.12,6-25.08V577.8Z" transform="translate(-198.02 -259.92)"/><path class="f" d="M1131.39,608.76c.24,14.28,9.36,20.16,19.92,20.16,7.56,0,12.11-1.32,16.07-3l1.8,7.56c-3.72,1.68-10.07,3.6-19.31,3.6-17.88,0-28.56-11.76-28.56-29.28s10.32-31.31,27.24-31.31c19,0,24,16.67,24,27.35a39.83,39.83,0,0,1-.36,4.92Zm31-7.56c.11-6.72-2.77-17.16-14.64-17.16-10.68,0-15.36,9.84-16.2,17.16Z" transform="translate(-198.02 -259.92)"/><path class="f" d="M1196.07,577.8V603h2.51l21.84-25.2h12.84L1208,604.08c9.35,1,15,7.2,19.55,17.64,1.56,3.84,3.6,9.48,6.24,14.16h-11a77.21,77.21,0,0,1-5.4-11.88c-4-9.36-9.35-13.68-19.19-13.68h-2v25.56h-10.44V577.8Z" transform="translate(-198.02 -259.92)"/></svg>